<svg width="43" height="42" viewBox="0 0 43 42" fill="none" xmlns="http://www.w3.org/2000/svg">
<path d="M29.6449 16.8738C29.4494 16.1362 28.8734 15.5554 28.1419 15.3583C26.816 15 21.5 15 21.5 15C21.5 15 16.184 15 14.8581 15.3583C14.1268 15.5554 13.5506 16.1362 13.3552 16.8738C13 18.2107 13 21.0001 13 21.0001C13 21.0001 13 23.7894 13.3552 25.1262C13.5506 25.8638 14.1268 26.4448 14.8581 26.6419C16.184 27 21.5 27 21.5 27C21.5 27 26.816 27 28.1419 26.6419C28.8734 26.4448 29.4494 25.8638 29.6449 25.1262C30 23.7894 30 21.0001 30 21.0001C30 21.0001 30 18.2107 29.6449 16.8738ZM19.7999 23.5716V18.4286L24.2166 21.0001L19.7999 23.5716Z" fill="#727171"/>
<path opacity="0.7" d="M21.5 41C32.8218 41 42 32.0457 42 21C42 9.9543 32.8218 1 21.5 1C10.1782 1 1 9.9543 1 21C1 32.0457 10.1782 41 21.5 41Z" stroke="#CFCFCF"/>
</svg>
