<svg width="43" height="42" viewBox="0 0 43 42" fill="none" xmlns="http://www.w3.org/2000/svg">
<path d="M22.8428 30V21.7894H25.4969L25.8947 18.5899H22.8428V16.5469C22.8428 15.6208 23.0903 14.989 24.3728 14.989H26V12.1261C25.211 12.0394 24.4177 11.9973 23.624 12.0001C21.2714 12.0001 19.664 13.4914 19.664 16.2301V18.5899H17V21.7894H19.6613V30H22.8428Z" fill="#727171"/>
<path opacity="0.7" d="M21.5 41C32.8218 41 42 32.0457 42 21C42 9.9543 32.8218 1 21.5 1C10.1782 1 1 9.9543 1 21C1 32.0457 10.1782 41 21.5 41Z" stroke="#CFCFCF"/>
</svg>
