<svg width="22" height="22" viewBox="0 0 22 22" fill="none" xmlns="http://www.w3.org/2000/svg">
<rect width="22" height="22" rx="2" fill="#E4E4E4"/>
<path d="M15 12C14.4477 12 14 11.5523 14 11C14 10.4477 14.4477 10 15 10C15.5523 10 16 10.4477 16 11C16 11.5523 15.5523 12 15 12Z" fill="#555555"/>
<path d="M11 12C10.4477 12 10 11.5523 10 11C10 10.4477 10.4477 10 11 10C11.5523 10 12 10.4477 12 11C12 11.5523 11.5523 12 11 12Z" fill="#555555"/>
<path d="M7 12C6.44772 12 6 11.5523 6 11C6 10.4477 6.44772 10 7 10C7.55228 10 8 10.4477 8 11C8 11.5523 7.55228 12 7 12Z" fill="#555555"/>
</svg>
