<svg width="137" height="40" viewBox="0 0 137 40" fill="none" xmlns="http://www.w3.org/2000/svg">
<path d="M79.8011 28.6823H88.4245L83.5257 20.6284L88.2372 15.8151V0H70.3779L64.0742 6.16658V28.675H71.7467V20.6577H74.931L79.8011 28.675V28.6823ZM71.7467 6.9054H80.5719V13.7742H71.7467V6.9054Z" fill="black"/>
<path d="M60.5085 0H52.8359V28.6823H60.5085V0Z" fill="black"/>
<path d="M49.2679 28.6823V0H31.4014L25.0977 6.16658V28.675H32.7702V20.6577H41.5954V28.675H49.2679V28.6823ZM32.7702 6.9054H41.5954V13.7742H32.7702V6.9054Z" fill="black"/>
<path d="M136.102 0H128.43V28.6823H136.102V0Z" fill="black"/>
<path d="M124.858 28.6823V0H106.999L100.695 6.16658V28.675H108.368V20.6577H117.193V28.675H124.866L124.858 28.6823ZM108.368 6.9054H117.193V13.7742H108.368V6.9054Z" fill="black"/>
<path d="M21.7217 13.7669H7.73111V6.89808H21.7073L21.7217 0H6.3623L0.0585938 6.16658V28.6823H7.73111V20.665H21.7217V13.7669Z" fill="black"/>
<path d="M0 35.6828V34.9367H2.7232V33.6053H3.63814V34.9367H7.16822V35.6828H0ZM6.01554 34.5343H5.15103C5.28791 33.9052 5.37436 33.3054 5.42479 32.7129H0.835692V31.9302H6.32532C6.2821 32.9177 6.17403 33.7809 6.01554 34.5343ZM3.58051 39.45C2.2117 39.45 1.23913 38.7697 1.23913 37.7603C1.23913 36.7508 2.2117 36.0705 3.58051 36.0705C4.94931 36.0705 5.91468 36.7508 5.91468 37.7603C5.91468 38.7697 4.94931 39.45 3.58051 39.45ZM3.58051 36.8312C2.78084 36.8312 2.14686 37.1824 2.14686 37.7603C2.14686 38.3381 2.78084 38.6893 3.58051 38.6893C4.38018 38.6893 5.01415 38.3381 5.01415 37.7603C5.01415 37.1824 4.38018 36.8312 3.58051 36.8312Z" fill="black"/>
<path d="M11.7003 35.7703C11.0736 35.368 10.4756 34.9291 9.87045 34.3585C9.2797 34.9803 8.65293 35.4485 7.98294 35.8508L7.45703 35.2656C8.10541 34.8413 8.66014 34.3878 9.12121 33.8611C9.32293 33.6343 9.41658 33.3637 9.41658 33.093V32.8151H7.78122V32.047H11.9597V32.8151H10.3243V33.093C10.3243 33.3783 10.418 33.6197 10.6197 33.8465C11.0447 34.3 11.5923 34.7389 12.1974 35.1559L11.7003 35.7703ZM11.5058 39.4498C10.1586 39.4498 9.20766 38.7329 9.20766 37.7161C9.20766 36.6994 10.1586 35.9825 11.5058 35.9825C12.853 35.9825 13.804 36.6994 13.804 37.7161C13.804 38.7329 12.853 39.4498 11.5058 39.4498ZM11.5058 36.7506C10.7278 36.7506 10.1154 37.1163 10.1154 37.7161C10.1154 38.316 10.7278 38.6817 11.5058 38.6817C12.2839 38.6817 12.8962 38.316 12.8962 37.7161C12.8962 37.1163 12.2767 36.7506 11.5058 36.7506ZM12.8962 36.041V34.0952H11.549V33.2832H12.8962V31.7471H13.7824V36.0483H12.8962V36.041Z" fill="black"/>
<path d="M15.0508 33.4295V32.6688H16.8446V31.7471H17.7596V32.6688H19.5246V33.4295H15.058H15.0508ZM17.2985 37.6503C16.1602 37.6503 15.3101 36.8457 15.3101 35.7118C15.3101 34.578 16.1602 33.7733 17.2985 33.7733C18.4368 33.7733 19.2869 34.578 19.2869 35.7118C19.2869 36.8457 18.4368 37.6503 17.2985 37.6503ZM17.2985 34.5268C16.7006 34.5268 16.2035 34.9657 16.2035 35.7045C16.2035 36.4433 16.7006 36.8822 17.2985 36.8822C17.8965 36.8822 18.3935 36.4433 18.3935 35.7045C18.3935 34.9657 17.8965 34.5268 17.2985 34.5268ZM20.1082 39.106V31.7471H20.9943V34.6731H22.0821V35.4558H20.9943V39.106H20.1082Z" fill="black"/>
<path d="M22.2266 38.1697V37.387H24.7913V34.8779H25.7062V37.387H29.3948V38.1697H22.2266ZM28.0692 36.5238H27.2119C27.4064 35.3241 27.5577 33.9562 27.5865 32.9175H23.0983V32.1348H28.4942C28.4366 33.6782 28.2781 35.2949 28.0692 36.5238Z" fill="black"/>
<path d="M35.1792 35.8658C34.6677 35.5073 34.2355 35.1635 33.76 34.6881C33.2701 35.2001 32.8306 35.5585 32.2687 35.9462L31.75 35.3903C32.2687 34.9953 32.6721 34.6222 33.0035 34.2418C33.2053 34.0224 33.3061 33.8029 33.3061 33.4811V33.1446H32.031V32.3838H33.2989V31.6304H34.2139V32.3838H35.4314V33.1446H34.2066V33.4811C34.2066 33.8176 34.3219 34.0004 34.5092 34.2199C34.8406 34.6003 35.1792 34.8929 35.6763 35.2659L35.172 35.8511L35.1792 35.8658ZM37.3333 39.1063V37.1459H32.9675V36.3632H38.2194V39.1063H37.3333ZM35.8492 36.0852V31.8498H36.7065V33.4884H37.3621V31.7474H38.2194V36.0779H37.3621V34.3004H36.7065V36.0779H35.8492V36.0852Z" fill="black"/>
<path d="M41.4387 35.4704C40.2572 35.4704 39.3711 34.7243 39.3711 33.6417C39.3711 32.559 40.25 31.8129 41.4387 31.8129C42.6274 31.8129 43.5063 32.559 43.5063 33.6417C43.5063 34.7243 42.6274 35.4704 41.4387 35.4704ZM41.4387 32.5737C40.8119 32.5737 40.2716 32.9614 40.2716 33.6417C40.2716 34.322 40.8191 34.7097 41.4387 34.7097C42.0583 34.7097 42.6058 34.3146 42.6058 33.6417C42.6058 32.9687 42.0583 32.5737 41.4387 32.5737ZM40.4157 36.1215H45.5091V39.0328H40.4157V36.1215ZM44.6158 36.8822H41.3018V38.2648H44.6158V36.8822ZM44.6158 31.7397H45.5019V35.8289H44.6158V31.7397Z" fill="black"/>
<path d="M46.9209 35.9752L46.5391 35.3168C48.4554 34.7755 49.3991 33.766 49.7666 32.837H46.9497V32.0543H50.8472C50.6815 33.9416 49.1254 35.3534 46.9281 35.9752M47.7134 36.1215H52.7275V39.0328H47.7134V36.1215ZM51.8342 36.8822H48.5995V38.2648H51.8342V36.8822ZM51.8342 35.8289V31.7397H52.7203V33.3637H53.7721V34.1464H52.7203V35.8289H51.8342Z" fill="black"/>
<path d="M58.3411 35.5509C57.1596 35.5509 56.2734 34.7901 56.2734 33.6782C56.2734 32.5664 57.1524 31.8056 58.3411 31.8056C59.5298 31.8056 60.4087 32.5664 60.4087 33.6782C60.4087 34.7901 59.5298 35.5509 58.3411 35.5509ZM62.5267 39.1279C62.0873 38.8207 61.655 38.433 61.2444 37.9649C60.8193 38.4257 60.3727 38.7915 59.8828 39.1279C59.3929 38.7988 58.9462 38.433 58.5212 37.9649C58.1105 38.4257 57.6783 38.8134 57.2388 39.1279L56.7273 38.5939C57.1379 38.2721 57.5054 37.9063 57.844 37.4674C57.9808 37.2992 58.0673 37.0724 58.0673 36.8237V36.1654H58.9606V36.8237C58.9606 37.0724 59.0399 37.2992 59.184 37.4674C59.3857 37.7015 59.6234 37.9429 59.8756 38.1697C60.1205 37.9502 60.3654 37.7088 60.5672 37.4674C60.7112 37.2992 60.7905 37.0724 60.7905 36.8237V36.1654H61.6838V36.8237C61.6838 37.0724 61.7703 37.2992 61.9072 37.4674C62.253 37.9063 62.6204 38.2721 63.0238 38.5939L62.5123 39.1279H62.5267ZM58.3411 32.5737C57.7143 32.5737 57.174 32.9833 57.174 33.6782C57.174 34.3732 57.7215 34.7828 58.3411 34.7828C58.9606 34.7828 59.5081 34.3732 59.5081 33.6782C59.5081 32.9833 58.9606 32.5737 58.3411 32.5737ZM61.5181 31.7471H62.4042V35.9605H61.5181V31.7471Z" fill="black"/>
<path d="M63.4336 35.4486H70.6018V36.1947H63.4336V35.4486ZM64.3485 34.5781V31.813H65.2347V33.7954H69.8382V34.5781H64.3485ZM64.3485 39.011V36.736H65.2347V38.2283H69.8382V39.011H64.3485Z" fill="black"/>
<path d="M77.6404 38.3964L76.9992 36.6774H74.5354L73.8942 38.3964H72.9648L75.335 32.1348H76.1995L78.5697 38.3964H77.6404ZM74.8235 35.902H76.7111L75.7673 33.371L74.8235 35.902Z" fill="black"/>
<path d="M80.3002 32.1421H79.4141V38.4038H80.3002V32.1421Z" fill="black"/>
<path d="M87.4738 35.7703C86.847 35.368 86.249 34.9291 85.6439 34.3585C85.0531 34.9803 84.4264 35.4485 83.7564 35.8508L83.2305 35.2656C83.8789 34.8413 84.4336 34.3878 84.8946 33.8611C85.0964 33.6343 85.19 33.3637 85.19 33.093V32.8151H83.5547V32.047H87.7331V32.8151H86.0978V33.093C86.0978 33.3783 86.1914 33.6197 86.3931 33.8465C86.8182 34.3 87.3657 34.7389 87.9709 35.1559L87.4738 35.7703ZM87.2793 39.4498C85.9321 39.4498 84.9811 38.7329 84.9811 37.7161C84.9811 36.6994 85.9321 35.9825 87.2793 35.9825C88.6264 35.9825 89.5774 36.6994 89.5774 37.7161C89.5774 38.7329 88.6264 39.4498 87.2793 39.4498ZM87.2793 36.7506C86.5012 36.7506 85.8888 37.1163 85.8888 37.7161C85.8888 38.316 86.5012 38.6817 87.2793 38.6817C88.0573 38.6817 88.6697 38.316 88.6697 37.7161C88.6697 37.1163 88.0501 36.7506 87.2793 36.7506ZM88.6697 36.041V34.0952H87.3225V33.2832H88.6697V31.7471H89.5558V36.0483H88.6697V36.041Z" fill="black"/>
<path d="M90.5931 38.1696V37.3869H93.7126V36.2019H91.5441V32.0981H92.4302V33.4002H95.9027V32.0981H96.7888V36.2019H94.6203V37.3869H97.7469V38.1696H90.5859H90.5931ZM95.9099 34.1537H92.4374V35.4411H95.9099V34.1537Z" fill="black"/>
<path d="M100.57 34.3366H103.344V32.8955H100.57V32.1421H104.23V35.0754H101.456V36.7506H102.292C103.214 36.7506 104.129 36.692 105.015 36.5311V37.2699C104.151 37.4382 103.214 37.504 102.292 37.504H100.57V34.3293V34.3366ZM105.376 39.106V31.7471H106.262V34.3878H107.349V35.1705H106.262V39.106H105.376Z" fill="black"/>
<path d="M109.888 36.7725C108.779 36.7725 107.777 35.8874 107.777 34.3732C107.777 32.859 108.779 31.9738 109.888 31.9738C110.998 31.9738 111.999 32.859 111.999 34.3732C111.999 35.8874 110.998 36.7725 109.888 36.7725ZM109.888 32.7419C109.197 32.7419 108.671 33.371 108.671 34.3732C108.671 35.3753 109.197 36.0044 109.888 36.0044C110.58 36.0044 111.106 35.3826 111.106 34.3732C111.106 33.3637 110.58 32.7419 109.888 32.7419ZM112.986 31.7471H113.872V39.106H112.986V31.7471Z" fill="black"/>
<path d="M114.898 37.3503H122.067V38.1331H114.898V37.3503ZM115.849 36.2019V32.0981H116.736V33.4002H120.208V32.0981H121.094V36.2019H115.842H115.849ZM120.215 34.1537H116.743V35.4411H120.215V34.1537Z" fill="black"/>
<path d="M122.84 34.3366H125.383V32.8955H122.84V32.1421H126.276V35.0754H123.733V36.7506H124.446C125.369 36.7506 126.276 36.692 127.17 36.5311V37.2699C126.305 37.4382 125.369 37.504 124.446 37.504H122.847V34.3293L122.84 34.3366ZM127.804 39.106V34.8706H126.593V34.0586H127.804V31.7471H128.69V39.106H127.804Z" fill="black"/>
<path d="M130.246 34.3366H133.085V32.8955H130.246V32.1421H133.978V35.0754H131.139V36.7506H132.09C133.013 36.7506 133.92 36.692 134.814 36.5311V37.2699C133.949 37.4382 133.013 37.504 132.09 37.504H130.246V34.3366ZM135.21 31.7544H136.096V39.1133H135.21V31.7544Z" fill="black"/>
</svg>
